<svg width="68" height="68" xmlns="http://www.w3.org/2000/svg" xmlns:xlink="http://www.w3.org/1999/xlink" xml:space="preserve" overflow="hidden"><g transform="translate(-162 0)"><path d="M196 13.8125C199.117 13.8125 201.667 11.2625 201.667 8.14583 201.667 5.02917 199.117 2.47917 196 2.47917 192.883 2.47917 190.333 5.02917 190.333 8.14583 190.333 11.2625 192.883 13.8125 196 13.8125" fill="#808285"/><path d="M210.167 35.0625 213 26.5625 179 26.5625 181.833 35.0625 186.083 35.0625 188.917 62.6875 184.667 62.6875 184.667 65.5208 207.333 65.5208 207.333 62.6875 203.083 62.6875 205.917 35.0625Z" fill="#808285"/><path d="M207.475 20.4708C207.333 19.9042 207.05 19.3375 206.625 18.9125 204.925 17.4958 202.942 16.5042 200.675 15.7958 199.117 15.5125 197.558 15.2292 196 15.2292 194.442 15.2292 192.883 15.5125 191.325 15.9375 189.058 16.5042 187.075 17.6375 185.375 19.0542 184.95 19.4792 184.667 20.0458 184.525 20.6125L183.817 23.7292 208.254 23.7292 207.475 20.4708Z" fill="#808285"/></g></svg>