<svg width="76" height="75" xmlns="http://www.w3.org/2000/svg" xmlns:xlink="http://www.w3.org/1999/xlink" xml:space="preserve" overflow="hidden"><g transform="translate(-296 0)"><path d="M69.8664 49.2594C70.78 49.0055 71.4498 48.2251 71.5625 47.2836L73.4195 31.8102C73.574 30.5276 72.6595 29.3627 71.3769 29.2082 71.3288 29.2024 71.2805 29.1981 71.232 29.1953L62.6336 28.6891C61.4069 28.6185 60.3339 29.5073 60.175 30.7258L59.6422 34.857 58.3289 32.8461 58.6281 30.5266C58.882 28.5816 60.5386 27.1266 62.5 27.1258 62.5781 27.1258 62.6562 27.1258 62.7344 27.1328L66.4484 27.3508 66.9852 24.0562C67.1905 22.7782 66.321 21.5757 65.043 21.3703 64.9728 21.3591 64.9022 21.3509 64.8313 21.3461L57.8398 20.8773C56.6292 20.7986 55.5586 21.6567 55.3719 22.8555L54.6875 27.2609 53.4109 25.3078 53.825 22.6219C54.1099 20.7159 55.7509 19.308 57.6781 19.3164 57.7641 19.3164 57.8516 19.3164 57.9391 19.3258L59.4813 19.4281 59.7242 17.2406C59.8654 15.9539 58.9368 14.7964 57.6501 14.6552 57.6262 14.6526 57.6022 14.6503 57.5781 14.6484L52.1203 14.2289C50.8563 14.1313 49.7438 15.0566 49.6094 16.3172L49.2555 19.6812C47.8432 18.5605 46.0927 17.952 44.2898 17.9547L43.6078 17.9547 43.6078 12.4859C43.6072 11.9202 43.3824 11.3778 42.9828 10.9773 42.6958 10.7366 42.3752 10.5389 42.0312 10.3906 39.1519 9.04813 35.8291 9.03391 32.9383 10.3516 32.5371 10.5115 32.1578 10.7215 31.8094 10.9766 31.4098 11.377 31.185 11.9195 31.1844 12.4852L31.1844 17.9539 30.4328 17.9539C28.74 17.952 27.0903 18.4879 25.7219 19.4844L25.3906 16.3172C25.2562 15.0585 24.1466 14.134 22.8844 14.2289L17.4266 14.6484C16.1361 14.7498 15.1723 15.8782 15.2737 17.1687 15.2755 17.1927 15.2778 17.2166 15.2805 17.2406L15.5234 19.4281 17.0656 19.3258C17.1531 19.3195 17.2406 19.3164 17.3266 19.3164 19.2537 19.3077 20.8947 20.7158 21.1789 22.6219L21.5422 24.9703 20.2656 26.9234 19.6406 22.8563C19.4539 21.6575 18.3833 20.7994 17.1727 20.8781L10.1812 21.3469C8.88984 21.4353 7.91469 22.5539 8.00313 23.8453 8.00797 23.9162 8.01609 23.9869 8.02734 24.057L8.56406 27.3516 12.2781 27.1336C12.3562 27.1289 12.4344 27.1266 12.5125 27.1266 14.4715 27.1305 16.1246 28.5848 16.3781 30.5273L16.6328 32.5047 15.3125 34.5164 14.8234 30.7258C14.6645 29.5073 13.5916 28.6185 12.3648 28.6891L3.76719 29.1953C2.47751 29.2698 1.49236 30.3756 1.5668 31.6652 1.56959 31.7137 1.57389 31.762 1.57969 31.8102L3.4375 47.2836C3.55025 48.2253 4.22049 49.0057 5.13438 49.2594L8.38125 50.1617 8.38125 53.443 5.65312 53.443C4.14694 53.4455 2.92645 54.6657 2.92344 56.1719L2.92344 56.7094C2.35266 57.3566 2.41461 58.344 3.06181 58.9148 3.70902 59.4855 4.69641 59.4236 5.26719 58.7763 5.78802 58.1858 5.78802 57.2999 5.26719 56.7094L5.26719 56.1719C5.26719 55.9562 5.44208 55.7812 5.65781 55.7812L8.38281 55.7812 8.38281 56.7086C7.8108 57.3547 7.87086 58.3422 8.51703 58.9142 9.16313 59.4863 10.1506 59.4262 10.7227 58.78 11.2461 58.1887 11.2461 57.2998 10.7227 56.7086L10.7227 55.7812 13.4523 55.7812C13.668 55.7812 13.843 55.9562 13.843 56.1719L13.843 56.7094C13.2722 57.3566 13.3341 58.344 13.9813 58.9148 14.6286 59.4855 15.6159 59.4236 16.1867 58.7763 16.7076 58.1858 16.7076 57.2999 16.1867 56.7094L16.1867 56.1719C16.1841 54.6654 14.9635 53.4448 13.457 53.4422L10.7227 53.4422 10.7227 51.2289C11.2075 51.5463 11.7393 51.7853 12.2984 51.9375L17.3266 53.2812C19.8219 53.9474 22.3438 54.4873 24.8922 54.9008L24.8922 62.157C24.8956 63.2287 25.6255 64.1616 26.6648 64.4227L27.8406 64.7164C34.1251 65.9726 40.6008 65.922 46.8648 64.568L47.3336 64.443C48.3554 64.1694 49.0673 63.2452 49.0711 62.1875L49.0711 55.0117C51.8397 54.5911 54.5835 54.0213 57.2906 53.3047L62.4352 51.9359C63.1002 51.7583 63.7259 51.4572 64.2797 51.0484L64.2797 53.4422 61.55 53.4422C60.0435 53.4448 58.8229 54.6654 58.8203 56.1719L58.8203 56.7094C58.2483 57.3555 58.3084 58.343 58.9545 58.915 59.6006 59.487 60.5881 59.427 61.1602 58.7808 61.6836 58.1895 61.6836 57.3006 61.1602 56.7094L61.1602 56.1719C61.1602 55.9562 61.3351 55.7812 61.5508 55.7812L64.2805 55.7812 64.2805 56.7086C63.7084 57.3547 63.7685 58.3422 64.4147 58.9142 65.0608 59.4863 66.0483 59.4262 66.6203 58.78 67.1438 58.1887 67.1438 57.2998 66.6203 56.7086L66.6203 55.7812 69.35 55.7812C69.5657 55.7812 69.7406 55.9562 69.7406 56.1719L69.7406 56.7094C69.1698 57.3566 69.2318 58.344 69.879 58.9148 70.5262 59.4855 71.5136 59.4236 72.0844 58.7763 72.6052 58.1858 72.6052 57.2999 72.0844 56.7094L72.0844 56.1719C72.0818 54.6635 70.8584 53.4422 69.35 53.4422L66.6195 53.4422 66.6195 50.1609ZM56.4883 50.2898C50.2454 51.9501 43.813 52.7905 37.3531 52.7898 30.8643 52.7893 24.4033 51.9407 18.1344 50.2656L13.1062 48.9219C11.9516 48.6703 11.2194 47.5303 11.4709 46.3756 11.5281 46.1131 11.6341 45.8638 11.7836 45.6406L26.5016 23.075C27.4068 21.8055 28.8752 21.0584 30.4344 21.0742L44.2969 21.0742C45.8556 21.0585 47.3238 21.8048 48.2297 23.0734L62.9578 45.6375C63.6154 46.6189 63.3529 47.9477 62.3714 48.6052 62.1474 48.7553 61.8971 48.8616 61.6336 48.9188Z" fill="#808285" transform="matrix(1.01333 0 0 1 296 0)"/></g></svg>