<svg width="75" height="75" xmlns="http://www.w3.org/2000/svg" xmlns:xlink="http://www.w3.org/1999/xlink" xml:space="preserve" overflow="hidden"><g transform="translate(-22 0)"><path d="M64.9688 21.0156C64.9688 24.0625 62.5469 26.4844 59.5 26.4844 56.4531 26.4844 54.0312 24.0625 54.0312 21.0156 54.0312 17.9688 56.4531 15.5469 59.5 15.5469 62.5469 15.5469 64.9688 18.0469 64.9688 21.0156" fill="#808285"/><path d="M86.8438 24.1406C86.8438 27.1875 84.4219 29.6094 81.375 29.6094 78.3281 29.6094 75.9062 27.1875 75.9062 24.1406 75.9062 21.0938 78.3281 18.6719 81.375 18.6719 84.4219 18.6719 86.8438 21.0938 86.8438 24.1406" fill="#808285"/><path d="M43.0938 24.1406C43.0938 27.1875 40.6719 29.6094 37.625 29.6094 34.5781 29.6094 32.1562 27.1875 32.1562 24.1406 32.1562 21.0938 34.5781 18.6719 37.625 18.6719 40.6719 18.6719 43.0938 21.0938 43.0938 24.1406" fill="#808285"/><path d="M28.7188 59.4531C28.7188 48.0469 42.4688 38.8281 59.5 38.8281 76.4531 38.8281 90.2812 48.0469 90.2812 59.4531L28.7188 59.4531Z" fill="#808285"/><path d="M35.75 41.7188C39.0312 39.5312 42.8594 37.8125 47 36.7188L47 35.8594C47 35 46.6094 34.1406 46.0625 33.5938 45.8281 33.3594 45.2812 33.0469 44.5781 32.7344 40.2812 30.7031 35.2031 30.7031 30.8281 32.6562 30.0469 32.9688 29.4219 33.3594 29.1094 33.5938 28.6406 34.1406 28.25 35 28.25 35.8594L28.25 49.1406C30.0469 46.4062 32.5469 43.8281 35.75 41.7188" fill="#808285"/><path d="M68.875 35.9375 68.875 32.7344C68.875 31.875 68.4844 31.0156 67.9375 30.4688 67.7031 30.2344 67.1562 29.9219 66.4531 29.6094 62.1562 27.5781 57.0781 27.5781 52.7031 29.5312 51.9219 29.8438 51.2969 30.2344 50.9844 30.4688 50.3594 31.0156 50.0469 31.875 50.0469 32.7344L50.0469 35.9375C53.0938 35.3125 56.2188 35 59.4219 35 62.625 35 65.8281 35.3906 68.875 35.9375" fill="#808285"/><path d="M90.75 49.1406 90.75 35.8594C90.75 35 90.3594 34.1406 89.8125 33.5938 89.5781 33.3594 89.0312 33.0469 88.3281 32.7344 84.0312 30.7031 78.9531 30.7031 74.5781 32.6562 73.7969 32.9688 73.1719 33.3594 72.8594 33.5938 72.2344 34.1406 71.9219 35 71.9219 35.8594L71.9219 36.7188C76.0625 37.8125 79.8906 39.5312 83.1719 41.7188 86.4531 43.8281 88.9531 46.4062 90.75 49.1406" fill="#808285"/></g></svg>