<svg width="76" height="75" xmlns="http://www.w3.org/2000/svg" xmlns:xlink="http://www.w3.org/1999/xlink" xml:space="preserve" overflow="hidden"><g transform="translate(-433 0)"><path d="M25.7812 24.0625C25.7812 27.9458 22.6333 31.0938 18.75 31.0938 14.8667 31.0938 11.7188 27.9458 11.7188 24.0625 11.7188 20.1792 14.8667 17.0312 18.75 17.0312 22.6333 17.0312 25.7812 20.1792 25.7812 24.0625Z" fill="#808285" transform="matrix(1.01333 0 0 1 433 0)"/><path d="M63.2812 24.0625C63.2812 27.9458 60.1333 31.0938 56.25 31.0938 52.3667 31.0938 49.2188 27.9458 49.2188 24.0625 49.2188 20.1792 52.3667 17.0312 56.25 17.0312 60.1333 17.0312 63.2812 20.1792 63.2812 24.0625Z" fill="#808285" transform="matrix(1.01333 0 0 1 433 0)"/><path d="M51.5625 57.9687 51.5625 50.9375C51.5625 49.8438 51.0938 48.75 50.1562 48.125 48.2812 46.5625 45.7812 45.4688 43.2812 44.8438 41.5625 44.375 39.5312 43.9062 37.5 43.9062 35.625 43.9062 33.5938 44.2188 31.7187 44.8438 29.2188 45.4688 26.875 46.7188 24.8438 48.125 23.9062 48.9062 23.4375 49.8438 23.4375 50.9375L23.4375 57.9687 51.5625 57.9687Z" fill="#808285" transform="matrix(1.01333 0 0 1 433 0)"/><path d="M44.5312 35C44.5312 38.8833 41.3833 42.0312 37.5 42.0312 33.6167 42.0312 30.4688 38.8833 30.4688 35 30.4688 31.1167 33.6167 27.9688 37.5 27.9688 41.3833 27.9688 44.5312 31.1167 44.5312 35Z" fill="#808285" transform="matrix(1.01333 0 0 1 433 0)"/><path d="M68.9062 37.1875C67.0312 35.625 64.5312 34.5312 62.0312 33.9062 60.3125 33.4375 58.2812 32.9688 56.25 32.9688 54.375 32.9688 52.3438 33.2812 50.4688 33.9062 49.5312 34.2188 48.5938 34.5312 47.6562 35L47.6562 35.1562C47.6562 37.8125 46.5625 40.3125 44.8438 42.0312 47.8125 42.9688 50.1562 44.2188 52.0312 45.625 52.5 46.0938 52.9688 46.4062 53.2812 47.0312L70.3125 47.0312 70.3125 40C70.3125 38.9062 69.8438 37.8125 68.9062 37.1875Z" fill="#808285" transform="matrix(1.01333 0 0 1 433 0)"/><path d="M22.9688 45.625 22.9688 45.625C25.1562 44.0625 27.6563 42.8125 30.1562 42.0312 28.4375 40.1562 27.3438 37.8125 27.3438 35.1562 27.3438 35 27.3438 35 27.3438 34.8438 26.4062 34.5312 25.4687 34.0625 24.5312 33.9062 22.8125 33.4375 20.7812 32.9688 18.75 32.9688 16.875 32.9688 14.8438 33.2812 12.9688 33.9062 10.4688 34.6875 8.125 35.7812 6.09375 37.1875 5.15625 37.8125 4.6875 38.9062 4.6875 40L4.6875 47.0312 21.5625 47.0312C22.0312 46.4062 22.3438 46.0938 22.9688 45.625Z" fill="#808285" transform="matrix(1.01333 0 0 1 433 0)"/></g></svg>