<svg width="75" height="75" xmlns="http://www.w3.org/2000/svg" xmlns:xlink="http://www.w3.org/1999/xlink" xml:space="preserve" overflow="hidden"><g transform="translate(-22 0)"><path d="M32.9375 50.7812 36.0625 50.7812 36.0625 53.9062 32.9375 53.9062 32.9375 50.7812ZM32.9375 44.5312 36.0625 44.5312 36.0625 47.6562 32.9375 47.6562 32.9375 44.5312ZM32.9375 38.2812 36.0625 38.2812 36.0625 41.4062 32.9375 41.4062 32.9375 38.2812ZM39.1875 50.7812 42.3125 50.7812 42.3125 53.9062 39.1875 53.9062 39.1875 50.7812ZM39.1875 44.5312 42.3125 44.5312 42.3125 47.6562 39.1875 47.6562 39.1875 44.5312ZM39.1875 38.2812 42.3125 38.2812 42.3125 41.4062 39.1875 41.4062 39.1875 38.2812ZM28.25 61.7188 36.0625 61.7188 36.0625 57.0312 39.1875 57.0312 39.1875 61.7188 47 61.7188 47 33.5938 28.25 33.5938 28.25 61.7188Z" fill="#722A81"/><path d="M54.8125 50.7812 57.9375 50.7812 57.9375 53.9062 54.8125 53.9062 54.8125 50.7812ZM54.8125 44.5312 57.9375 44.5312 57.9375 47.6562 54.8125 47.6562 54.8125 44.5312ZM61.0625 50.7812 64.1875 50.7812 64.1875 53.9062 61.0625 53.9062 61.0625 50.7812ZM61.0625 44.5312 64.1875 44.5312 64.1875 47.6562 61.0625 47.6562 61.0625 44.5312ZM50.125 61.7188 57.9375 61.7188 57.9375 57.0312 61.0625 57.0312 61.0625 61.7188 68.875 61.7188 68.875 39.8438 50.125 39.8438 50.125 61.7188Z" fill="#722A81"/><path d="M86.0625 23.4375 82.9375 23.4375 82.9375 20.3125 86.0625 20.3125 86.0625 23.4375ZM86.0625 28.9062 82.9375 28.9062 82.9375 25.7812 86.0625 25.7812 86.0625 28.9062ZM86.0625 35.1562 82.9375 35.1562 82.9375 32.0312 86.0625 32.0312 86.0625 35.1562ZM86.0625 41.4062 82.9375 41.4062 82.9375 38.2812 86.0625 38.2812 86.0625 41.4062ZM86.0625 47.6562 82.9375 47.6562 82.9375 44.5312 86.0625 44.5312 86.0625 47.6562ZM86.0625 53.9062 82.9375 53.9062 82.9375 50.7812 86.0625 50.7812 86.0625 53.9062ZM79.8125 23.4375 76.6875 23.4375 76.6875 20.3125 79.8125 20.3125 79.8125 23.4375ZM79.8125 28.9062 76.6875 28.9062 76.6875 25.7812 79.8125 25.7812 79.8125 28.9062ZM79.8125 35.1562 76.6875 35.1562 76.6875 32.0312 79.8125 32.0312 79.8125 35.1562ZM79.8125 41.4062 76.6875 41.4062 76.6875 38.2812 79.8125 38.2812 79.8125 41.4062ZM79.8125 47.6562 76.6875 47.6562 76.6875 44.5312 79.8125 44.5312 79.8125 47.6562ZM79.8125 53.9062 76.6875 53.9062 76.6875 50.7812 79.8125 50.7812 79.8125 53.9062ZM72 14.8438 72 61.7188 79.8125 61.7188 79.8125 57.0312 82.9375 57.0312 82.9375 61.7188 90.75 61.7188 90.75 17.1875 72 14.8438Z" fill="#722A81"/><path d="M50.125 24.2188 53.25 24.2188 53.25 27.3438 50.125 27.3438 50.125 24.2188ZM50.125 17.9688 53.25 17.9688 53.25 21.0938 50.125 21.0938 50.125 17.9688ZM47 21.0938 43.875 21.0938 43.875 17.9688 47 17.9688 47 21.0938ZM47 27.3438 43.875 27.3438 43.875 24.2188 47 24.2188 47 27.3438ZM50.125 36.7188 57.9375 36.7188 57.9375 13.2812 39.1875 13.2812 39.1875 30.4688 50.125 30.4688 50.125 36.7188Z" fill="#722A81"/></g></svg>