<svg width="75" height="75" xmlns="http://www.w3.org/2000/svg" xmlns:xlink="http://www.w3.org/1999/xlink" xml:space="preserve" overflow="hidden"><g transform="translate(-159 0)"><path d="M196.5 17.0312 207.75 28.3594 209.938 26.1719 196.5 13.2812 182.75 26.4062 184.938 28.5937Z" fill="#722A81"/><path d="M221.5 45.2344 215.25 45.2344 215.25 38.9844 221.5 38.9844 221.5 45.2344ZM221.5 54.6094 215.25 54.6094 215.25 48.3594 221.5 48.3594 221.5 54.6094ZM212.125 45.2344 205.875 45.2344 205.875 38.9844 212.125 38.9844 212.125 45.2344ZM212.125 54.6094 205.875 54.6094 205.875 48.3594 212.125 48.3594 212.125 54.6094ZM201.969 45.2344 191.031 45.2344 191.031 42.1094 201.969 42.1094 201.969 45.2344ZM196.5 30.3906C197.828 30.3906 198.844 31.4062 198.844 32.7344 198.844 34.0625 197.828 35.0781 196.5 35.0781 195.172 35.0781 194.156 34.0625 194.156 32.7344 194.156 31.4062 195.172 30.3906 196.5 30.3906ZM187.125 45.2344 180.875 45.2344 180.875 38.9844 187.125 38.9844 187.125 45.2344ZM187.125 54.6094 180.875 54.6094 180.875 48.3594 187.125 48.3594 187.125 54.6094ZM177.75 45.2344 171.5 45.2344 171.5 38.9844 177.75 38.9844 177.75 45.2344ZM177.75 54.6094 171.5 54.6094 171.5 48.3594 177.75 48.3594 177.75 54.6094ZM205.875 35.0781 205.875 30.3906 196.5 21.0156 187.125 30.3906 187.125 35.0781 168.375 35.0781 168.375 61.6406 191.031 61.6406 191.031 53.0469C191.031 50.8594 192.594 48.3594 196.5 48.3594 200.406 48.3594 201.969 50.8594 201.969 53.0469L201.969 61.6406 224.625 61.6406 224.625 35.0781 205.875 35.0781Z" fill="#722A81"/></g></svg>