<svg width="153" height="35" viewBox="0 0 153 35" fill="none" xmlns="http://www.w3.org/2000/svg">
<ellipse cx="137.298" cy="12.6709" rx="9.61554" ry="9.38101" fill="#F26649"/>
<ellipse cx="142.96" cy="11.0354" rx="9.61554" ry="9.38101" fill="#9BDBF0"/>
<ellipse cx="142.169" cy="15.2013" rx="9.61554" ry="9.38101" fill="#9BDBF0"/>
<path fill-rule="evenodd" clip-rule="evenodd" d="M133.353 11.4492C133.572 16.3635 137.666 20.2971 142.728 20.4137C145.255 18.7234 146.913 15.8861 146.913 12.6709C146.913 10.0621 145.822 7.70202 144.06 6.00163C143.448 5.88266 142.816 5.82025 142.169 5.82025C138.226 5.82025 134.837 8.13584 133.353 11.4492Z" fill="#722A81"/>
<path fill-rule="evenodd" clip-rule="evenodd" d="M142.728 20.4137C142.805 20.4154 142.882 20.4163 142.96 20.4163C146.903 20.4163 150.291 18.1007 151.775 14.7874C151.557 9.87636 147.468 5.94478 142.41 5.82312C142.974 5.83667 143.525 5.89747 144.06 6.0016C145.822 7.70199 146.913 10.0621 146.913 12.6709C146.913 15.886 145.255 18.7233 142.728 20.4137Z" fill="#008ABA"/>
<path fill-rule="evenodd" clip-rule="evenodd" d="M142.728 20.4138C141.183 21.4473 139.313 22.052 137.298 22.052C136.65 22.052 136.018 21.9896 135.407 21.8706C133.645 20.1702 132.553 17.8101 132.553 15.2013C132.553 13.8673 132.839 12.5983 133.353 11.4493C133.572 16.3636 137.666 20.2971 142.728 20.4138Z" fill="#90629D"/>
<path fill-rule="evenodd" clip-rule="evenodd" d="M142.728 20.4136C142.728 20.4136 142.728 20.4136 142.728 20.4136C144.624 19.1459 146.03 17.2329 146.615 14.9993C146.03 17.2329 144.624 19.1459 142.728 20.4136ZM139.067 19.6157C135.818 18.2106 133.516 15.1006 133.353 11.4491C134.837 8.13575 138.226 5.82017 142.169 5.82017C142.816 5.82017 143.448 5.88257 144.06 6.00154C142.374 4.37419 140.074 3.35109 137.529 3.29248C135.002 4.98279 133.344 7.82014 133.344 11.0353C133.344 14.8644 135.696 18.1578 139.067 19.6157Z" fill="#90629D"/>
<path d="M0.89624 22.0059C1.77053 24.4321 3.73767 25.6561 6.16381 25.6561C7.67195 25.6561 8.85224 25.2626 9.68281 24.4539C10.5352 23.6452 10.9505 22.6179 10.9505 21.3721C10.9505 20.1699 10.6227 19.2519 9.9451 18.5962C9.28938 17.9186 8.19653 17.2411 6.64467 16.5635L5.33324 15.9733C5.09281 15.8422 4.80867 15.6455 4.4371 15.4051C3.73767 14.8805 3.54095 14.3559 3.54095 13.5691C3.54095 12.3232 4.61195 11.4052 5.98895 11.4052C7.1911 11.4052 8.08724 11.9298 8.65553 13.0008L10.12 12.2576C9.24567 10.6402 7.86867 9.83148 6.01081 9.83148C4.80867 9.83148 3.80324 10.1812 3.01638 10.9025C2.22953 11.6238 1.8361 12.5199 1.8361 13.6128C1.8361 14.7275 2.16395 15.6018 2.79781 16.1919C3.43167 16.7821 4.45895 17.3941 5.83595 18.0061C7.08181 18.5525 7.97795 19.0552 8.48067 19.4923C8.98338 19.9295 9.24567 20.5633 9.24567 21.3939C9.24567 21.9185 9.13638 22.3775 8.76481 23.0113C8.39324 23.6452 7.47524 24.0823 6.18567 24.0823C4.39338 24.0823 3.12567 23.1643 2.36067 21.3283L0.89624 22.0059Z" fill="black"/>
<path d="M13.8558 22.2682C13.8558 23.7326 14.2711 24.6943 14.9487 25.1315C15.6481 25.5686 16.2382 25.6779 17.0251 25.6779C17.3967 25.6779 17.7245 25.6342 18.0305 25.5686V24.1042C17.7464 24.1479 17.4185 24.1698 17.0032 24.1698C15.9322 24.1698 15.4732 23.6671 15.4732 22.2682V15.8422H18.0305V14.3341H15.4732V10.1156H13.8558V14.3341H12.5662V15.8422H13.8558V22.2682Z" fill="black"/>
<path d="M21.4974 25.3501V18.9459C21.4974 17.1099 22.7433 15.8422 24.47 15.8422C24.9072 15.8422 25.2787 15.8859 25.5629 15.9515V14.2029C25.3662 14.1811 25.1257 14.1592 24.8853 14.1592C23.2897 14.1592 22.0876 14.9679 21.4974 16.1919V14.3341H19.88V25.3501H21.4974Z" fill="black"/>
<path d="M31.8885 14.0062C30.3366 14.0062 29.0033 14.5745 27.9323 15.6892C26.8613 16.8039 26.3149 18.1809 26.3149 19.8421C26.3149 21.5032 26.8613 22.9021 27.9323 24.0168C29.0033 25.1315 30.3366 25.6779 31.8885 25.6779C33.8775 25.6779 35.167 24.8255 35.8009 23.7108V25.3501H37.4183V14.3341H35.8009V15.9733C35.167 14.8586 33.8775 14.0062 31.8885 14.0062ZM31.8885 24.1698C30.7519 24.1698 29.812 23.7545 29.047 22.9458C28.3039 22.1152 27.9323 21.0879 27.9323 19.8421C27.9323 18.5962 28.3039 17.5689 29.047 16.7602C29.812 15.9296 30.7519 15.5143 31.8885 15.5143C33.0688 15.5143 34.0523 15.9296 34.8173 16.7602C35.6042 17.5689 35.9976 18.5962 35.9976 19.8421C35.9976 21.0879 35.6042 22.1152 34.8173 22.9458C34.0523 23.7545 33.0688 24.1698 31.8885 24.1698Z" fill="black"/>
<path d="M40.5796 22.2682C40.5796 23.7326 40.9949 24.6943 41.6724 25.1315C42.3719 25.5686 42.962 25.6779 43.7489 25.6779C44.1204 25.6779 44.4483 25.6342 44.7543 25.5686V24.1042C44.4702 24.1479 44.1423 24.1698 43.727 24.1698C42.656 24.1698 42.197 23.6671 42.197 22.2682V15.8422H44.7543V14.3341H42.197V10.1156H40.5796V14.3341H39.29V15.8422H40.5796V22.2682Z" fill="black"/>
<path d="M45.9095 19.9732C45.9095 21.6781 46.4122 23.0551 47.4395 24.0823C48.4668 25.1096 49.8219 25.6342 51.4612 25.6342C53.2753 25.6342 54.7616 24.9785 55.9201 23.6889L54.8491 22.6398C53.8655 23.6889 52.9693 24.1698 51.4612 24.1698C49.1662 24.1698 47.6143 22.6179 47.5269 20.1918H56.4665C56.4883 19.9732 56.4883 19.7328 56.4883 19.4923C56.4883 17.9405 56.0075 16.6509 55.0676 15.6018C54.1278 14.5308 52.9256 14.0062 51.4175 14.0062C49.8219 14.0062 48.4886 14.5526 47.4613 15.6236C46.4341 16.6946 45.9095 18.1153 45.9095 19.8858V19.9732ZM47.6362 18.7711C47.7018 17.8749 48.0952 17.1099 48.8165 16.4761C49.5378 15.8422 50.4121 15.5143 51.4175 15.5143C52.3355 15.5143 53.1223 15.8422 53.7781 16.4761C54.4338 17.1099 54.7616 17.8749 54.7616 18.7711H47.6362Z" fill="black"/>
<path d="M58.3633 28.4756C59.9151 29.5903 61.6418 30.1586 63.5871 30.1586C65.0953 30.1586 66.3193 29.7652 67.3028 29.0002C68.046 28.4101 68.5268 27.7106 68.7236 26.8801C68.9421 26.0713 69.0514 24.9348 69.0514 23.5141V14.3341H67.434V15.9733C66.8001 14.8586 65.5106 14.0062 63.5216 14.0062C61.9697 14.0062 60.6364 14.5526 59.5654 15.6455C58.4944 16.7383 57.948 18.1153 57.948 19.7546C57.948 21.3939 58.4944 22.7709 59.5654 23.8638C60.6364 24.9348 61.9697 25.4812 63.5216 25.4812C65.5106 25.4812 66.8001 24.6288 67.434 23.5141V24.4321C67.434 26.0713 67.0624 27.2079 66.2974 27.8418C65.6198 28.3882 64.7237 28.6505 63.5653 28.6505C62.0134 28.6505 60.549 28.1696 59.1938 27.1861L58.3633 28.4756ZM63.5216 23.9731C62.385 23.9731 61.4451 23.5796 60.6801 22.7709C59.937 21.9622 59.5654 20.9568 59.5654 19.7546C59.5654 18.5525 59.937 17.5471 60.6801 16.7383C61.4451 15.9296 62.385 15.5143 63.5216 15.5143C64.7018 15.5143 65.6854 15.9296 66.4504 16.7383C67.2373 17.5471 67.6307 18.5525 67.6307 19.7546C67.6307 20.9568 67.2373 21.9622 66.4504 22.7709C65.6854 23.5796 64.7018 23.9731 63.5216 23.9731Z" fill="black"/>
<path d="M73.1302 12.1921C73.5673 11.7549 73.5673 11.0555 73.1302 10.6402C72.693 10.2031 72.0373 10.2031 71.6002 10.6402C71.163 11.0555 71.163 11.7549 71.6002 12.1921C72.0373 12.6073 72.693 12.6073 73.1302 12.1921ZM73.1739 25.3501V14.3341H71.5564V25.3501H73.1739Z" fill="black"/>
<path d="M81.0737 14.0062C79.4344 14.0062 78.0574 14.5745 76.9208 15.6892C75.7843 16.8039 75.216 18.1809 75.216 19.8421C75.216 21.5032 75.7843 22.9021 76.9208 24.0168C78.0574 25.1315 79.4344 25.6779 81.0737 25.6779C82.7785 25.6779 84.1774 25.1315 85.2484 24.0168L84.2648 22.8802C83.4343 23.7326 82.3633 24.1698 81.0737 24.1698C79.8497 24.1698 78.8443 23.7545 78.0356 22.9458C77.2268 22.1152 76.8334 21.0879 76.8334 19.8421C76.8334 18.5962 77.2268 17.5689 78.0356 16.7602C78.8443 15.9296 79.8497 15.5143 81.0737 15.5143C82.3633 15.5143 83.4343 15.9515 84.2648 16.8039L85.2484 15.6673C84.1774 14.5526 82.7785 14.0062 81.0737 14.0062Z" fill="black"/>
<path d="M90.5947 25.3501V20.4322H93.6547C94.988 20.4322 96.1683 19.9513 97.2174 18.9678C98.2666 17.9842 98.7911 16.7602 98.7911 15.2739C98.7911 13.7221 98.2447 12.4762 97.1737 11.5363C96.1027 10.5965 94.9443 10.1156 93.6547 10.1156H87.2287V25.3501H90.5947ZM90.5947 13.1756H93.458C93.917 13.1756 94.376 13.3505 94.7913 13.6783C95.2066 14.0062 95.4251 14.5308 95.4251 15.2739C95.4251 16.0171 95.2066 16.5635 94.7913 16.8913C94.376 17.2192 93.917 17.3722 93.458 17.3722H90.5947V13.1756Z" fill="black"/>
<path d="M104.839 14.1373C103.287 14.1373 101.976 14.6838 100.927 15.7985C99.8994 16.8913 99.3748 18.2465 99.3748 19.8421C99.3748 21.4376 99.8994 22.7928 100.927 23.9075C101.976 25.0003 103.287 25.5468 104.839 25.5468C106.5 25.5468 107.79 24.8692 108.118 23.9075V25.3501H111.374V14.3341H108.118V15.7766C107.79 14.8149 106.5 14.1373 104.839 14.1373ZM105.429 22.5961C104.642 22.5961 103.987 22.3338 103.44 21.8092C102.894 21.2628 102.631 20.6071 102.631 19.8421C102.631 19.0771 102.894 18.4213 103.44 17.8968C103.987 17.3503 104.642 17.0881 105.429 17.0881C106.238 17.0881 106.915 17.3503 107.462 17.8968C108.03 18.4213 108.314 19.0771 108.314 19.8421C108.314 20.6071 108.03 21.2628 107.462 21.8092C106.915 22.3338 106.238 22.5961 105.429 22.5961Z" fill="black"/>
<path d="M114.412 29.9401C114.871 30.0493 115.352 30.0931 115.855 30.0931C117.1 30.0931 118.084 29.7652 118.805 29.1313C119.286 28.7161 119.701 28.0385 120.073 27.0986L124.969 14.3341H121.647L118.936 21.9841L115.942 14.3341H112.62L117.319 25.8746L117.144 26.3555C117.057 26.6833 116.904 26.9019 116.685 27.0549C116.467 27.2079 116.161 27.2953 115.745 27.2953C115.199 27.2953 114.762 27.2298 114.412 27.1205V29.9401Z" fill="black"/>
</svg>
